<svg width="32" height="32" viewBox="0 0 32 32" fill="none" xmlns="http://www.w3.org/2000/svg">
<path d="M27.1311 5.84625C30.7244 11.1818 32.5211 17.1707 31.8677 24.0851C31.8677 24.0851 31.8677 24.1395 31.8133 24.1395C29.4177 25.9362 26.6955 27.2973 23.81 28.1684C23.7555 28.2229 23.7555 28.1684 23.7011 28.1684C23.1022 27.2973 22.5578 26.4262 22.0678 25.5006C22.0678 25.4462 22.0678 25.4462 22.0678 25.3918L22.1222 25.3373C22.9933 25.0106 23.81 24.6295 24.6266 24.1395C24.6266 24.1395 24.6811 24.1395 24.6811 24.0851C24.6811 24.0306 24.6811 24.0306 24.6266 23.9762C24.4633 23.8673 24.3 23.7584 24.1366 23.5951C24.0822 23.5951 24.0822 23.5951 24.0278 23.5951C18.8555 25.9906 13.1933 25.9906 7.96668 23.5951C7.91224 23.5951 7.85779 23.5951 7.85779 23.5951C7.69446 23.7584 7.53112 23.8673 7.36779 23.9762C7.31335 24.0306 7.31335 24.0306 7.31335 24.0851C7.31335 24.1395 7.31335 24.1395 7.36779 24.1395C8.13001 24.6295 9.00112 25.0106 9.87223 25.3373C9.87223 25.3373 9.87223 25.3918 9.92668 25.3918C9.92668 25.4462 9.92668 25.4462 9.92668 25.5006C9.43668 26.4262 8.89223 27.2973 8.29335 28.1684C8.2389 28.1684 8.18446 28.2229 8.18446 28.1684C5.29891 27.2973 2.57669 25.9362 0.181139 24.1395C0.126695 24.1395 0.126695 24.0851 0.126695 24.0851C-0.417748 18.0962 0.725583 12.0529 4.86335 5.84625C4.86335 5.84625 4.86335 5.84625 4.9178 5.84625C6.98668 4.86626 9.16445 4.21292 11.3967 3.83181C11.4511 3.77737 11.5056 3.83181 11.5056 3.83181C11.8322 4.37626 12.1044 4.97514 12.3222 5.51959C14.7722 5.13848 17.2222 5.13848 19.6722 5.51959C19.89 4.97514 20.1622 4.37626 20.4889 3.83181C20.4889 3.83181 20.5433 3.77737 20.5978 3.83181C22.83 4.21292 25.0078 4.86626 27.0766 5.84625C27.1311 5.84625 27.1311 5.84625 27.1311 5.84625ZM10.6889 20.4373C12.2678 20.4373 13.5744 18.9673 13.5744 17.2251C13.5744 15.4284 12.3222 14.0129 10.6889 14.0129C9.11001 14.0129 7.80335 15.4284 7.80335 17.2251C7.80335 18.9673 9.11001 20.4373 10.6889 20.4373ZM21.3055 20.4373C22.9389 20.4373 24.1911 18.9673 24.1911 17.2251C24.2455 15.4284 22.9389 14.0129 21.3055 14.0129C19.7267 14.0129 18.4744 15.4284 18.4744 17.2251C18.4744 18.9673 19.7267 20.4373 21.3055 20.4373Z" fill="white"/>
</svg>
