<svg width="32" height="32" viewBox="0 0 32 32" fill="none" xmlns="http://www.w3.org/2000/svg">
<path d="M16.1435 32C12.9081 32 11.4204 31.6012 8.94891 30.2706C6.80753 29.1178 4.96137 27.5747 3.97314 25.36C0.43219 17.4268 1.50791 5.5617 9.07511 1.61853C12.9176 -0.383421 19.0128 -0.603412 22.9166 1.38123C26.6612 3.28499 28.4731 6.25503 29.9718 10.0657L26.9127 10.9397C25.4999 5.80718 22.0958 2.96366 16.5706 2.96366C14.387 2.96366 12.4055 3.18302 10.7403 4.00854C6.75718 5.98217 5.12502 10.6121 4.96451 15.3017C4.84775 18.7096 5.39852 22.1495 6.91926 24.6245C8.65873 27.4551 12.2733 29.2452 15.6616 29.2452C18.8353 29.2452 21.389 28.6935 23.3585 26.8461C26.0406 24.3299 26.5995 20.3175 23.1807 17.8711C22.1276 26.8587 9.94028 26.346 9.94028 19.2024C9.94028 17.7191 10.5172 16.4247 11.6706 15.3194C13.9615 13.1242 17.4083 13.7728 20.283 13.7294C19.9799 12.3726 18.8265 10.4069 16.6124 10.4069C14.9063 10.4069 13.4362 10.8358 12.646 12.157L10.2644 10.6121C11.2731 8.71805 13.3069 7.47427 16.427 7.47427C19.5472 7.47427 22.6016 9.51588 23.108 13.3876L23.2644 14.5832C25.0281 15.2948 26.2977 16.6223 27.1792 17.9599C29.6577 21.7208 28.2911 26.5452 24.7518 29.5445C22.8206 31.1811 19.9507 31.9997 16.1438 31.9997L16.1435 32ZM12.7838 19.142C12.7838 20.6136 14.3451 21.7142 15.8568 21.7142C17.543 21.7142 18.7025 21.2387 19.3348 20.2876C19.967 19.3365 20.2833 18.1909 20.2833 16.8514C18.5511 16.4111 15.5373 16.0955 13.9401 17.1526C13.1879 17.6505 12.7841 18.2847 12.7841 19.142H12.7838Z" fill="white"/>
</svg>
