<svg width="32" height="32" viewBox="0 0 32 32" fill="none" xmlns="http://www.w3.org/2000/svg">
<g clip-path="url(#clip0_941_22269)">
<path d="M29.6924 13.446C26.8827 13.5085 24.2603 12.6343 22.0125 11.0109V22.1874C22.0125 26.4332 19.3901 30.1795 15.3941 31.678C11.4604 33.1765 6.96488 32.0526 4.2176 28.8683C1.40787 25.6215 0.908368 21.0635 2.90639 17.3172C4.90442 13.6333 9.02535 11.5729 13.2712 12.1348V17.7543C11.3356 17.1299 9.21266 17.8167 8.02633 19.4401C6.90245 21.1259 6.90245 23.3113 8.08877 24.9347C9.2751 26.5581 11.398 27.2449 13.2712 26.6205C15.2067 25.9961 16.5179 24.1854 16.5179 22.1874V0.333984H22.0125C22.0125 0.833491 22.0125 1.27056 22.1374 1.77007C22.512 3.83053 23.6983 5.64124 25.5091 6.76513C26.6954 7.57683 28.1939 8.0139 29.6924 8.0139V13.446Z" fill="white"/>
</g>
<defs>
<clipPath id="clip0_941_22269">
<rect width="32" height="32" fill="white"/>
</clipPath>
</defs>
</svg>
